<?xml version="1.0" encoding="UTF-8" standalone="no"?>
<!-- Created with Inkscape (http://www.inkscape.org/) -->

<svg
   width="100mm"
   height="100mm"
   viewBox="0 0 100 100"
   version="1.1"
   id="svg1"
   xml:space="preserve"
   inkscape:version="1.4.2 (ebf0e94, 2025-05-08)"
   sodipodi:docname="circled-plus-icon.svg"
   xmlns:inkscape="http://www.inkscape.org/namespaces/inkscape"
   xmlns:sodipodi="http://sodipodi.sourceforge.net/DTD/sodipodi-0.dtd"
   xmlns="http://www.w3.org/2000/svg"
   xmlns:svg="http://www.w3.org/2000/svg"><sodipodi:namedview
     id="namedview1"
     pagecolor="#ffffff"
     bordercolor="#000000"
     borderopacity="0.25"
     inkscape:showpageshadow="2"
     inkscape:pageopacity="0.0"
     inkscape:pagecheckerboard="0"
     inkscape:deskcolor="#d1d1d1"
     inkscape:document-units="mm"
     inkscape:zoom="1.0721378"
     inkscape:cx="283.54565"
     inkscape:cy="340.90768"
     inkscape:window-width="1920"
     inkscape:window-height="1111"
     inkscape:window-x="-9"
     inkscape:window-y="-9"
     inkscape:window-maximized="1"
     inkscape:current-layer="layer1" /><defs
     id="defs1" /><g
     inkscape:label="Слой 1"
     inkscape:groupmode="layer"
     id="layer1"><path
       style="fill:#000000;stroke-width:0.592899"
       d="M 42.538887,99.004413 C 33.941128,97.663537 26.0289,94.141574 18.907298,88.485313 17.190474,87.121737 13.158971,83.090235 11.795399,81.373411 4.4835705,72.167342 0.7134613,61.547089 0.7134613,50.156014 c 0,-11.391076 3.7701092,-22.01133 11.0819377,-31.217396 1.363572,-1.716824 5.395075,-5.748328 7.111899,-7.1119 9.206065,-7.3118282 19.826319,-11.0819376 31.217394,-11.0819376 11.391077,0 22.011331,3.7701094 31.217393,11.0819376 1.716824,1.363572 5.748327,5.395076 7.111901,7.1119 7.640963,9.620464 11.406,20.751895 11.036354,32.629238 -0.337911,10.857412 -3.824366,20.497086 -10.553052,29.178066 -1.617067,2.086259 -5.6561,6.202698 -7.595203,7.74078 -7.210339,5.719192 -15.161328,9.236235 -23.804189,10.529573 -2.157224,0.322822 -12.907566,0.314313 -14.999009,-0.01183 z M 52.948376,93.137415 C 63.833891,92.298626 73.285364,87.92795 80.813474,80.251674 86.28411,74.673368 89.970184,68.162465 91.85318,60.75169 c 1.802913,-7.095614 1.802913,-14.095741 0,-21.191352 C 89.910996,31.916598 85.965296,25.10129 80.220355,19.46723 74.632912,13.987632 68.144445,10.313912 60.72373,8.4283843 53.623226,6.6242188 46.626159,6.6242188 39.525655,8.4283843 32.104939,10.313912 25.616474,13.987632 20.029032,19.46723 14.26911,25.115978 10.343769,31.895494 8.3970644,39.556976 5.9796262,49.071089 6.8096866,58.659093 10.838996,67.763652 c 5.201162,11.75246 16.10608,20.921574 28.686659,24.120411 4.616457,1.173825 9.064618,1.58917 13.422721,1.253352 z M 48.715965,72.70627 c -0.379967,-0.194127 -0.906717,-0.624187 -1.170556,-0.955689 l -0.479707,-0.602724 -0.04298,-8.927211 -0.04298,-8.927205 h -8.63041 c -8.18446,0 -8.660486,-0.01547 -9.21243,-0.299379 -1.132209,-0.582378 -1.915425,-1.742854 -1.915425,-2.838048 0,-1.095194 0.783216,-2.25567 1.915425,-2.838052 0.552311,-0.284094 1.030459,-0.299375 9.368032,-0.299375 h 8.786014 l 0.04425,-8.745577 c 0.04311,-8.520487 0.05268,-8.761727 0.37196,-9.373062 0.673121,-1.28885 2.349314,-1.952857 3.756974,-1.488288 0.79519,0.262437 1.836281,1.332769 2.075676,2.133974 0.14223,0.476015 0.192926,2.856572 0.192926,9.059319 v 8.413634 H 62.1316 c 8.048062,0 8.424179,0.01291 9.004924,0.30919 2.374752,1.211507 2.521738,4.840667 0.244233,6.03013 -0.611332,0.319276 -0.852577,0.328851 -9.37306,0.371961 l -8.745578,0.04423 v 8.39538 c 0,9.169559 0.03284,8.818093 -0.919919,9.845221 -0.979824,1.05631 -2.387031,1.324673 -3.626234,0.691558 z"
       id="path1" /></g></svg>
