<?xml version="1.0" encoding="UTF-8" standalone="no"?>
<!-- Created with Inkscape (http://www.inkscape.org/) -->

<svg
   width="100mm"
   height="100mm"
   viewBox="0 0 100 100"
   version="1.1"
   id="svg1"
   xml:space="preserve"
   inkscape:version="1.4.2 (ebf0e94, 2025-05-08)"
   sodipodi:docname="default-avatar.svg"
   xmlns:inkscape="http://www.inkscape.org/namespaces/inkscape"
   xmlns:sodipodi="http://sodipodi.sourceforge.net/DTD/sodipodi-0.dtd"
   xmlns="http://www.w3.org/2000/svg"
   xmlns:svg="http://www.w3.org/2000/svg"><sodipodi:namedview
     id="namedview1"
     pagecolor="#ffffff"
     bordercolor="#000000"
     borderopacity="0.25"
     inkscape:showpageshadow="2"
     inkscape:pageopacity="0.0"
     inkscape:pagecheckerboard="0"
     inkscape:deskcolor="#d1d1d1"
     inkscape:document-units="mm"
     inkscape:zoom="0.75811588"
     inkscape:cx="397.03693"
     inkscape:cy="425.39671"
     inkscape:window-width="1920"
     inkscape:window-height="1111"
     inkscape:window-x="-9"
     inkscape:window-y="-9"
     inkscape:window-maximized="1"
     inkscape:current-layer="layer1" /><defs
     id="defs1" /><g
     inkscape:label="Слой 1"
     inkscape:groupmode="layer"
     id="layer1"><path
       style="fill:#444455;fill-opacity:1;stroke-width:0.484437"
       d="M 48.01309,99.345797 C 40.468846,98.895639 34.334319,97.301331 28.076861,94.164565 13.287522,86.750897 3.1472716,72.175431 1.3717831,55.77903 0.67620707,49.355472 1.2105114,42.928737 2.9505837,36.788843 4.4341793,31.553931 7.1996564,25.895465 10.463127,21.41737 17.238718,12.119971 27.170638,5.4331954 38.252869,2.7076135 42.458182,1.6733528 45.494084,1.3181261 50.127957,1.3181261 c 4.633881,0 7.669786,0.3552267 11.875095,1.3894874 11.08223,2.7255819 21.014155,9.4123575 27.789743,18.7097565 2.396299,3.288172 4.983402,8.093165 6.343988,11.782596 3.044863,8.256619 3.833673,17.427334 2.24171,26.062187 -3.934654,21.341708 -21.495018,37.586486 -43.05948,39.833559 -1.840547,0.191789 -5.934387,0.331922 -7.305923,0.250085 z m 6.536878,-2.098587 c 3.356933,-0.400557 5.395005,-0.77418 7.818616,-1.433338 6.889256,-1.873688 12.84162,-5.014261 18.32889,-9.670653 8.001302,-6.789749 13.534627,-16.20767 15.619844,-26.585553 0.305399,-1.519932 0.442878,-2.429387 0.726225,-4.80403 0.158436,-1.327795 0.158436,-7.516216 0,-8.844011 C 96.760196,43.534982 96.622717,42.625528 96.317318,41.105591 95.124542,35.169287 92.850549,29.623918 89.509724,24.504563 82.661287,14.010259 71.740659,6.6364628 59.353998,4.1428923 c -1.51968,-0.3059284 -2.427166,-0.4432296 -4.80403,-0.726839 -1.327794,-0.1584339 -7.516217,-0.1584339 -8.844011,0 -2.376862,0.2836094 -3.284355,0.4209106 -4.804034,0.726839 C 28.515266,6.6364628 17.59464,14.010259 10.746197,24.504563 6.9339546,30.346306 4.3183247,37.286796 3.4754566,43.797246 3.1284492,46.47759 3.09003,47.12894 3.09003,50.331628 c 0,3.202689 0.03842,3.854044 0.3854266,6.534382 0.8428681,6.510455 3.458498,13.450945 7.2707404,19.292688 6.84974,10.496294 17.768585,17.867958 30.161146,20.362767 1.459377,0.293797 2.348253,0.430704 4.670436,0.71937 1.146068,0.142458 7.792095,0.147182 8.972189,0.0064 z M 25.071236,74.149543 C 22.785148,73.713598 20.82962,71.7134 20.402321,69.373979 20.209288,68.317135 20.208877,41.321524 20.401877,40.261464 c 0.276211,-1.517088 1.354069,-3.129184 2.627103,-3.929223 0.276574,-0.173811 0.848937,-0.452629 1.27191,-0.61959 0.747384,-0.295022 0.895216,-0.304901 5.249445,-0.35081 4.888273,-0.05154 4.84494,-0.0452 5.67402,-0.831842 0.351959,-0.333947 0.566933,-0.853274 1.450557,-3.504241 0.57055,-1.711706 1.163332,-3.302438 1.317291,-3.534954 0.158977,-0.240101 0.58054,-0.575056 0.97569,-0.77524 l 0.695764,-0.352481 h 10.528386 10.528398 l 0.695764,0.352481 c 0.39515,0.200184 0.816713,0.535139 0.97569,0.77524 0.153959,0.232516 0.746741,1.823248 1.317291,3.534954 0.883624,2.650967 1.098598,3.170294 1.450556,3.504241 0.82908,0.786649 0.785748,0.780298 5.674021,0.831842 4.354229,0.04592 4.502056,0.05579 5.249445,0.35081 0.422973,0.166961 0.995336,0.445779 1.27191,0.61959 1.273033,0.800039 2.350892,2.412135 2.627104,3.929223 0.192999,1.06006 0.192588,28.055671 -4.45e-4,29.112515 -0.437893,2.397432 -2.389851,4.349389 -4.787283,4.787282 -0.983903,0.179712 -49.178497,0.168444 -50.123258,-0.01172 z m 28.649545,-6.231076 c 5.594443,-1.498127 9.57443,-5.478003 11.03636,-11.036049 0.334649,-1.272288 0.462599,-4.304299 0.244703,-5.798812 -0.901988,-6.186604 -5.80645,-11.287914 -12.014065,-12.496251 -1.499581,-0.291902 -4.091879,-0.291902 -5.59146,0 -6.207615,1.208337 -11.112077,6.309647 -12.014066,12.496251 -0.217895,1.494513 -0.08994,4.526524 0.244704,5.798812 1.529005,5.813054 6.063877,10.117391 11.803112,11.203098 1.432787,0.271043 5.009429,0.176069 6.290712,-0.167049 z M 48.01309,62.006394 c -1.147938,-0.314933 -1.737672,-0.568138 -2.621029,-1.125352 -1.638,-1.033237 -3.004887,-2.785085 -3.680847,-4.71749 -0.326235,-0.932634 -0.358885,-1.187725 -0.36093,-2.819833 -0.0024,-2.026508 0.198997,-2.872616 1.053278,-4.422001 0.650963,-1.180643 2.398885,-2.88875 3.584313,-3.502672 2.567867,-1.329873 5.840481,-1.329873 8.408348,0 1.185428,0.613922 2.93335,2.322029 3.584313,3.502672 0.854281,1.549385 1.055811,2.395493 1.053278,4.422001 -0.0019,1.632108 -0.03468,1.887199 -0.36093,2.819833 -0.942575,2.6946 -2.986581,4.734615 -5.662235,5.65118 -1.389046,0.475824 -3.646248,0.562392 -4.997559,0.191662 z m 24.76906,-16.61435 c 0.895967,-0.37436 1.33572,-1.007194 1.33572,-1.922181 0,-1.188533 -0.901619,-2.110417 -2.064037,-2.110417 -2.297061,0 -2.945292,3.035645 -0.851311,3.986682 0.641128,0.291191 0.969742,0.300739 1.579628,0.04592 z"
       id="path1" /></g></svg>
