<?xml version="1.0" encoding="UTF-8" standalone="no"?>
<!-- Created with Inkscape (http://www.inkscape.org/) -->

<svg
   width="50mm"
   height="51mm"
   viewBox="0 0 50 51"
   version="1.1"
   id="svg1"
   xml:space="preserve"
   inkscape:version="1.4.2 (ebf0e94, 2025-05-08)"
   sodipodi:docname="edit-icon.svg"
   xmlns:inkscape="http://www.inkscape.org/namespaces/inkscape"
   xmlns:sodipodi="http://sodipodi.sourceforge.net/DTD/sodipodi-0.dtd"
   xmlns="http://www.w3.org/2000/svg"
   xmlns:svg="http://www.w3.org/2000/svg"><sodipodi:namedview
     id="namedview1"
     pagecolor="#ffffff"
     bordercolor="#000000"
     borderopacity="0.25"
     inkscape:showpageshadow="2"
     inkscape:pageopacity="0.0"
     inkscape:pagecheckerboard="0"
     inkscape:deskcolor="#d1d1d1"
     inkscape:document-units="mm"
     inkscape:zoom="2.1442755"
     inkscape:cx="105.86326"
     inkscape:cy="102.36558"
     inkscape:window-width="1920"
     inkscape:window-height="1111"
     inkscape:window-x="-9"
     inkscape:window-y="-9"
     inkscape:window-maximized="1"
     inkscape:current-layer="layer1" /><defs
     id="defs1" /><g
     inkscape:label="Слой 1"
     inkscape:groupmode="layer"
     id="layer1"><path
       style="fill:#000000;stroke-width:0.565343"
       d="M 6.2587753,49.016808 C 3.8714249,48.454003 1.7260567,46.205958 1.2116626,43.728128 1.1052538,43.215572 1.067308,37.271276 1.0946197,25.394821 L 1.1350417,7.8200005 1.470143,7.0007228 C 2.23945,5.1198446 3.6775688,3.672392 5.5140394,2.9305832 l 0.8563119,-0.345888 9.2799087,-0.043701 9.279903,-0.043701 0.512782,0.3455601 C 26.081427,3.27313 26.309949,3.9526719 26.03742,4.6106178 25.62251,5.6122977 26.05161,5.5684101 15.86353,5.6510745 L 6.6456223,5.7258637 5.9096651,6.1799752 C 4.9195024,6.7909411 4.2556148,7.8949311 4.1284184,9.1420375 4.0766895,9.6489464 4.0551669,17.535223 4.0805338,26.667096 l 0.046132,16.60341 0.3522028,0.708753 c 0.393586,0.792023 1.1513544,1.524526 1.9554117,1.890224 0.4839107,0.220082 2.2518279,0.243052 18.7084117,0.243052 18.157833,0 18.174601,-2.83e-4 18.84711,-0.31458 0.80195,-0.374794 1.408794,-0.958708 1.847399,-1.777584 0.315772,-0.589556 0.32285,-0.756169 0.396305,-9.325724 l 0.07479,-8.725444 0.488496,-0.436348 c 0.287951,-0.257214 0.656397,-0.436117 0.897481,-0.435789 0.553929,5.66e-4 1.354256,0.51137 1.457171,0.929678 0.04619,0.187654 0.0648,4.278893 0.04144,9.091639 l -0.04251,8.750448 -0.502556,1.165154 c -0.848918,1.96819 -2.248588,3.247103 -4.227904,3.863134 -0.867298,0.269934 -1.678712,0.281179 -19.253105,0.266785 C 15.0756,49.15565 6.5670171,49.089437 6.2588488,49.016791 Z M 11.68044,39.350589 c -0.442539,-0.161773 -0.894496,-0.698605 -0.982334,-1.166816 -0.06804,-0.362707 0.258582,-1.528534 1.365767,-4.874832 0.800361,-2.418966 1.552549,-4.591901 1.671543,-4.82874 0.194574,-0.387293 25.618553,-25.914213 26.796671,-26.905174 0.358359,-0.3014294 0.651902,-0.411349 1.09854,-0.411349 0.592773,0 0.695456,0.085203 3.740579,3.1037937 1.72209,1.7070863 3.233506,3.2993118 3.358706,3.5382879 0.5606,1.0700354 1.207064,0.3487429 -13.446806,15.0032794 l -13.501314,13.50194 -4.738256,1.572625 c -4.708796,1.562845 -4.933057,1.62419 -5.363096,1.466985 z m 5.909013,-4.883442 2.543454,-0.844859 9.610849,-9.61172 9.610846,-9.611714 -1.837284,-1.832869 -1.837285,-1.832875 -9.62758,9.605257 -9.627583,9.605258 -0.876411,2.620109 c -0.482029,1.441065 -0.876412,2.6799 -0.876412,2.752971 0,0.07308 0.08414,0.101914 0.186976,0.06408 0.102836,-0.03782 1.331529,-0.448966 2.73043,-0.913639 z M 43.466464,6.6983719 c -0.98542,-0.9879986 -1.841462,-1.7792636 -1.902316,-1.7583741 -0.06085,0.020861 -0.925856,0.8387311 -1.922227,1.8174241 l -1.81159,1.7794445 1.844193,1.8486366 1.844199,1.848631 1.869701,-1.869707 1.869707,-1.8697069 z"
       id="path1" /></g></svg>
