<?xml version="1.0" encoding="UTF-8" standalone="no"?>
<!-- Created with Inkscape (http://www.inkscape.org/) -->

<svg
   width="50mm"
   height="58mm"
   viewBox="0 0 50 58"
   version="1.1"
   id="svg1"
   xml:space="preserve"
   inkscape:version="1.4.2 (ebf0e94, 2025-05-08)"
   sodipodi:docname="trashcan-open-icon.svg"
   xmlns:inkscape="http://www.inkscape.org/namespaces/inkscape"
   xmlns:sodipodi="http://sodipodi.sourceforge.net/DTD/sodipodi-0.dtd"
   xmlns="http://www.w3.org/2000/svg"
   xmlns:svg="http://www.w3.org/2000/svg"><sodipodi:namedview
     id="namedview1"
     pagecolor="#ffffff"
     bordercolor="#000000"
     borderopacity="0.25"
     inkscape:showpageshadow="2"
     inkscape:pageopacity="0.0"
     inkscape:pagecheckerboard="0"
     inkscape:deskcolor="#d1d1d1"
     inkscape:document-units="mm"
     inkscape:zoom="2.1442755"
     inkscape:cx="92.805238"
     inkscape:cy="59.460642"
     inkscape:window-width="1920"
     inkscape:window-height="1111"
     inkscape:window-x="-9"
     inkscape:window-y="-9"
     inkscape:window-maximized="1"
     inkscape:current-layer="layer1" /><defs
     id="defs1" /><g
     inkscape:label="Слой 1"
     inkscape:groupmode="layer"
     id="layer1"><path
       style="fill:#000000;stroke-width:0.229934"
       d="m 5.1325591,22.044661 -0.904912,-1.584965 4.720403,-2.695042 4.7204159,-2.69505 -0.305031,-0.613952 C 13.195686,14.117969 12.922929,13.603807 12.75728,13.313086 11.852859,11.725957 11.889187,9.6662919 12.85014,7.9721334 13.10876,7.5161737 13.400643,7.1564367 13.921439,6.6517701 14.234287,6.3486033 14.494476,6.1915654 17.99499,4.1930003 c 3.974096,-2.2689497 3.952639,-2.2582081 4.857103,-2.429434 1.434003,-0.2714609 3.132468,0.1109518 4.291851,0.9663329 0.691456,0.5101312 0.902639,0.7675576 1.675968,2.0429582 L 29.54568,5.9697272 34.295082,3.2760223 39.044472,0.58232443 39.949223,2.1670069 40.853974,3.7516915 23.445677,13.690693 6.0374791,23.62964 Z M 25.759357,6.7829313 C 25.051496,5.5890693 24.972289,5.5139077 24.259743,5.3594197 23.53287,5.2018037 23.704682,5.1236441 19.714353,7.4272295 16.39779,9.341855 16.188311,9.4702629 16.067124,9.6627918 15.753131,10.16166 15.65968,10.598715 15.766273,11.06974 c 0.02697,0.119462 0.285182,0.657684 0.573682,1.196133 l 0.524532,0.979008 4.753893,-2.714163 4.753895,-2.7141642 z"
       id="path9" /><path
       style="fill:#000000;stroke-width:0.943818"
       d="M 12.660336,56.890937 C 11.453888,56.50854 9.5199605,54.519783 9.1864215,53.31853 9.0068515,52.671807 8.9168805,46.929298 8.9159525,36.055311 l -0.0014,-16.294132 h 1.8728885 1.872888 v 16.204037 c 0,15.582324 0.01832,16.226659 0.477374,16.793564 l 0.477373,0.589537 h 12.124491 c 11.305486,0 12.154613,-0.03011 12.570417,-0.445822 0.417586,-0.417498 0.450229,-1.484796 0.513627,-16.793568 l 0.0677,-16.347748 h 1.867618 1.867617 l -0.0025,16.418987 -0.0025,16.418995 -0.588807,1.248596 c -0.70166,1.487891 -1.392139,2.166099 -2.902373,2.850773 -1.084178,0.491522 -1.55444,0.508746 -13.359938,0.489445 -8.21613,-0.0134 -12.523353,-0.111021 -13.11022,-0.297038 z M 16.406113,36.617173 V 23.506957 h 1.872888 1.872889 v 13.110216 13.110224 h -1.872889 -1.872888 z m 7.491555,0 V 23.506957 h 1.872888 1.872889 v 13.110216 13.110224 h -1.872889 -1.872888 z m 7.491554,0 V 23.506957 h 1.872888 1.872889 V 36.617173 49.727397 H 33.26211 31.389222 Z"
       id="path10" /><rect
       style="fill:#000000;stroke-width:0.189319;stroke-opacity:0.372"
       id="rect10"
       width="30.901392"
       height="1.78221"
       x="11.722103"
       y="18.334082" /></g></svg>
