<?xml version="1.0" encoding="UTF-8" standalone="no"?>
<!-- Created with Inkscape (http://www.inkscape.org/) -->

<svg
   width="50mm"
   height="50mm"
   viewBox="0 0 50 50"
   version="1.1"
   id="svg1"
   xml:space="preserve"
   inkscape:version="1.4.2 (ebf0e94, 2025-05-08)"
   sodipodi:docname="trashcan-icon.svg"
   xmlns:inkscape="http://www.inkscape.org/namespaces/inkscape"
   xmlns:sodipodi="http://sodipodi.sourceforge.net/DTD/sodipodi-0.dtd"
   xmlns="http://www.w3.org/2000/svg"
   xmlns:svg="http://www.w3.org/2000/svg"><sodipodi:namedview
     id="namedview1"
     pagecolor="#ffffff"
     bordercolor="#000000"
     borderopacity="0.25"
     inkscape:showpageshadow="2"
     inkscape:pageopacity="0.0"
     inkscape:pagecheckerboard="0"
     inkscape:deskcolor="#d1d1d1"
     inkscape:document-units="mm"
     inkscape:zoom="2.1442755"
     inkscape:cx="60.160179"
     inkscape:cy="143.87144"
     inkscape:window-width="1920"
     inkscape:window-height="1111"
     inkscape:window-x="-9"
     inkscape:window-y="-9"
     inkscape:window-maximized="1"
     inkscape:current-layer="layer1" /><defs
     id="defs1" /><g
     inkscape:label="Слой 1"
     inkscape:groupmode="layer"
     id="layer1"><path
       style="fill:#000000;stroke-width:0.139823"
       d="M 13.285302,49.033798 C 12.049552,48.889025 10.937507,48.341642 10.023737,47.428323 9.2155667,46.620562 8.7521709,45.770839 8.4817108,44.600726 L 8.3994818,44.244999 8.3890679,28.161524 8.378654,12.078049 H 6.5293312 4.6800071 V 10.228306 8.3785742 h 5.5456219 5.545621 l 0.01726,-1.285575 c 0.0154,-1.1469578 0.02603,-1.325454 0.0985,-1.6555133 0.248171,-1.1300199 0.724951,-2.0040827 1.535078,-2.8142122 0.814851,-0.8148465 1.68115,-1.2856669 2.832708,-1.5395311 l 0.388446,-0.085659 h 4.383881 4.383879 l 0.388446,0.085659 c 1.151559,0.2538642 2.017857,0.7246846 2.832708,1.5395311 0.810127,0.8101295 1.286908,1.6841923 1.535076,2.8142122 0.07249,0.3300593 0.08311,0.5085555 0.09851,1.6555133 l 0.01726,1.285575 h 5.545621 5.54562 v 1.8497318 1.849743 h -1.849324 -1.849324 l -0.01041,16.083475 -0.01041,16.083475 -0.08255,0.357319 c -0.179031,0.774958 -0.483815,1.479641 -0.909498,2.102831 -0.10424,0.152605 -0.389464,0.478029 -0.633833,0.723174 -0.804271,0.806811 -1.657884,1.272751 -2.824606,1.541767 l -0.357317,0.08239 -11.653352,0.0051 c -6.409344,0.0031 -11.768075,-0.0082 -11.908292,-0.0243 z m 23.280739,-3.717423 c 0.668236,-0.157516 1.194768,-0.68405 1.352281,-1.352275 0.04937,-0.209452 0.05594,-2.078287 0.05642,-16.061545 l 5.59e-4,-15.824506 H 25.027115 12.078946 l 5.58e-4,15.824506 c 4.2e-4,13.983258 0.007,15.852093 0.05642,16.061545 0.155433,0.659393 0.682571,1.192554 1.335301,1.350549 0.184906,0.04472 1.8917,0.05289 11.537408,0.05503 9.97332,0.002 11.348605,-0.0041 11.557423,-0.05329 z M 15.778425,28.725692 V 15.777524 h 1.849738 1.849738 V 28.725692 41.67386 h -1.849738 -1.849738 z m 7.398953,0 V 15.777524 h 1.84974 1.849737 V 28.725692 41.67386 h -1.849737 -1.84974 z m 7.398955,0 V 15.777524 h 1.849738 1.849738 V 28.725692 41.67386 H 32.426071 30.576333 Z M 30.567533,7.2409786 C 30.553903,6.1679492 30.548273,6.0902125 30.468493,5.8711634 30.29022,5.3817512 29.855293,4.9532704 29.364821,4.7838609 l -0.249765,-0.086272 h -4.087928 c -3.890046,0 -4.097771,0.00306 -4.291392,0.068916 -0.561707,0.1902373 -0.948684,0.5651784 -1.153783,1.117901 -0.07577,0.2041838 -0.08222,0.2958669 -0.09547,1.3565732 l -0.01421,1.1375956 h 5.554857 5.554861 z"
       id="path1" /></g></svg>
